<svg width="102" height="166" viewBox="0 0 102 166" fill="none" xmlns="http://www.w3.org/2000/svg">
<path d="M32.4998 13.5675V15.4366H21.7791V13.5675H32.4998ZM28.1384 9.00208V20.3888H26.1511V9.00208H28.1384Z" fill="#E5E5E5"/>
<path d="M32.4998 48.353V50.2222H21.7791V48.353H32.4998ZM28.1384 43.7876V55.1743H26.1511V43.7876H28.1384Z" fill="#E5E5E5"/>
<path d="M32.4998 83.1384V85.0076H21.7791V83.1384H32.4998ZM28.1384 78.573V89.9597H26.1511V78.573H28.1384Z" fill="#6246E5"/>
<path d="M32.4998 117.924V119.793H21.7791V117.924H32.4998ZM28.1384 113.359V124.745H26.1511V113.359H28.1384Z" fill="#E5E5E5"/>
<path d="M32.4998 152.709V154.579H21.7791V152.709H32.4998ZM28.1384 148.144V159.531H26.1511V148.144H28.1384Z" fill="#E5E5E5"/>
<path d="M66.4703 13.5675V15.4366H55.7496V13.5675H66.4703ZM62.109 9.00208V20.3888H60.1217V9.00208H62.109Z" fill="#E5E5E5"/>
<path d="M66.4703 48.353V50.2222H55.7496V48.353H66.4703ZM62.109 43.7876V55.1743H60.1217V43.7876H62.109Z" fill="#E5E5E5"/>
<path d="M66.4703 83.1384V85.0076H55.7496V83.1384H66.4703ZM62.109 78.573V89.9597H60.1217V78.573H62.109Z" fill="#E5E5E5"/>
<path d="M66.4703 117.924V119.793H55.7496V117.924H66.4703ZM62.109 113.359V124.745H60.1217V113.359H62.109Z" fill="#E5E5E5"/>
<path d="M66.4703 152.709V154.579H55.7496V152.709H66.4703ZM62.109 148.144V159.531H60.1217V148.144H62.109Z" fill="#E5E5E5"/>
<path d="M100.441 13.5675V15.4366H89.7202V13.5675H100.441ZM96.0796 9.00208V20.3888H94.0923V9.00208H96.0796Z" fill="#FF7152"/>
<path d="M100.441 48.353V50.2222H89.7202V48.353H100.441ZM96.0796 43.7876V55.1743H94.0923V43.7876H96.0796Z" fill="#E5E5E5"/>
<path d="M100.441 83.1384V85.0076H89.7202V83.1384H100.441ZM96.0796 78.573V89.9597H94.0923V78.573H96.0796Z" fill="#E5E5E5"/>
<path d="M100.441 117.924V119.793H89.7202V117.924H100.441ZM96.0796 113.359V124.745H94.0923V113.359H96.0796Z" fill="#E5E5E5"/>
<path d="M100.441 152.709V154.579H89.7202V152.709H100.441ZM96.0796 148.144V159.531H94.0923V148.144H96.0796Z" fill="#E5E5E5"/>
</svg>
