<svg width="17" height="18" viewBox="0 0 17 18" fill="none" xmlns="http://www.w3.org/2000/svg">
<path d="M16.3431 1.76033L9.59908 16.7603C9.54265 16.886 9.44696 16.989 9.32698 17.0533C9.207 17.1177 9.06948 17.1396 8.93596 17.1158C8.80242 17.092 8.6804 17.0237 8.58898 16.9217C8.49755 16.8197 8.44187 16.6896 8.43065 16.5519L7.86047 9.57896L1.02035 8.99771C0.885253 8.98627 0.757687 8.92951 0.657601 8.8363C0.557515 8.7431 0.490552 8.61871 0.467186 8.48258C0.443819 8.34646 0.465366 8.20628 0.528457 8.08397C0.591548 7.96166 0.692625 7.86411 0.81588 7.80658L15.5302 0.93158C15.6439 0.878438 15.7709 0.862048 15.894 0.884614C16.0172 0.907179 16.1306 0.967618 16.2191 1.05781C16.3076 1.14801 16.3669 1.26365 16.389 1.38919C16.4112 1.51474 16.3951 1.64418 16.3429 1.76014L16.3431 1.76033Z" fill="#080809"/>
</svg>
