<svg width="25" height="24" viewBox="0 0 25 24" fill="none" xmlns="http://www.w3.org/2000/svg">
<path d="M12.5018 5.84719C9.09677 5.84719 6.34877 8.59519 6.34877 12.0002C6.34877 15.4052 9.09677 18.1532 12.5018 18.1532C15.9068 18.1532 18.6548 15.4052 18.6548 12.0002C18.6548 8.59519 15.9068 5.84719 12.5018 5.84719ZM12.5018 15.9992C10.2998 15.9992 8.50277 14.2022 8.50277 12.0002C8.50277 9.79819 10.2998 8.00119 12.5018 8.00119C14.7038 8.00119 16.5008 9.79819 16.5008 12.0002C16.5008 14.2022 14.7038 15.9992 12.5018 15.9992ZM18.9068 4.16119C18.1118 4.16119 17.4698 4.80319 17.4698 5.59819C17.4698 6.39319 18.1118 7.03519 18.9068 7.03519C19.7018 7.03519 20.3438 6.39619 20.3438 5.59819C20.344 5.40942 20.307 5.22245 20.2349 5.048C20.1627 4.87354 20.0569 4.71504 19.9234 4.58155C19.7899 4.44807 19.6314 4.34223 19.457 4.2701C19.2825 4.19796 19.0955 4.16096 18.9068 4.16119ZM24.4958 12.0002C24.4958 10.3442 24.5108 8.70319 24.4178 7.05019C24.3248 5.13019 23.8868 3.42619 22.4828 2.02219C21.0758 0.615193 19.3748 0.180193 17.4548 0.0871931C15.7988 -0.00580693 14.1578 0.00919311 12.5048 0.00919311C10.8488 0.00919311 9.20777 -0.00580693 7.55477 0.0871931C5.63477 0.180193 3.93077 0.618193 2.52677 2.02219C1.11977 3.42919 0.684771 5.13019 0.591771 7.05019C0.498771 8.70619 0.513771 10.3472 0.513771 12.0002C0.513771 13.6532 0.498771 15.2972 0.591771 16.9502C0.684771 18.8702 1.12277 20.5742 2.52677 21.9782C3.93377 23.3852 5.63477 23.8202 7.55477 23.9132C9.21077 24.0062 10.8518 23.9912 12.5048 23.9912C14.1608 23.9912 15.8018 24.0062 17.4548 23.9132C19.3748 23.8202 21.0788 23.3822 22.4828 21.9782C23.8898 20.5712 24.3248 18.8702 24.4178 16.9502C24.5138 15.2972 24.4958 13.6562 24.4958 12.0002ZM21.8558 19.0742C21.6368 19.6202 21.3728 20.0282 20.9498 20.4482C20.5268 20.8712 20.1218 21.1352 19.5758 21.3542C17.9978 21.9812 14.2508 21.8402 12.5018 21.8402C10.7528 21.8402 7.00277 21.9812 5.42477 21.3572C4.87877 21.1382 4.47077 20.8742 4.05077 20.4512C3.62777 20.0282 3.36377 19.6232 3.14477 19.0772C2.52077 17.4962 2.66177 13.7492 2.66177 12.0002C2.66177 10.2512 2.52077 6.50119 3.14477 4.92319C3.36377 4.37719 3.62777 3.96919 4.05077 3.54919C4.47377 3.12919 4.87877 2.86219 5.42477 2.64319C7.00277 2.01919 10.7528 2.16019 12.5018 2.16019C14.2508 2.16019 18.0008 2.01919 19.5788 2.64319C20.1248 2.86219 20.5328 3.12619 20.9528 3.54919C21.3758 3.97219 21.6398 4.37719 21.8588 4.92319C22.4828 6.50119 22.3418 10.2512 22.3418 12.0002C22.3418 13.7492 22.4828 17.4962 21.8558 19.0742Z" fill="#E61F5A"/>
</svg>
