<svg width="25" height="18" viewBox="0 0 25 18" fill="none" xmlns="http://www.w3.org/2000/svg">
<path d="M23.9699 2.9313C23.8335 2.39833 23.5663 1.9124 23.1951 1.52212C22.824 1.13185 22.3619 0.850924 21.855 0.707468C19.9884 0.17627 12.4879 0.17627 12.4879 0.17627C12.4879 0.17627 4.98729 0.17627 3.12071 0.707468C2.61385 0.850924 2.15172 1.13185 1.78057 1.52212C1.40941 1.9124 1.14225 2.39833 1.00582 2.9313C0.657288 4.93298 0.488155 6.96464 0.500644 8.99956C0.488155 11.0345 0.657288 13.0661 1.00582 15.0678C1.14225 15.6008 1.40941 16.0867 1.78057 16.477C2.15172 16.8673 2.61385 17.1482 3.12071 17.2917C4.98729 17.8229 12.4879 17.8229 12.4879 17.8229C12.4879 17.8229 19.9884 17.8229 21.855 17.2917C22.3619 17.1482 22.824 16.8673 23.1951 16.477C23.5663 16.0867 23.8335 15.6008 23.9699 15.0678C24.3184 13.0661 24.4876 11.0345 24.4751 8.99956C24.4876 6.96464 24.3184 4.93298 23.9699 2.9313ZM10.0904 12.781V5.21815L16.3152 8.99956L10.0904 12.781Z" fill="#E42F08"/>
</svg>
